# xmcd
#
# Track frame offsets:
#	150
#	12808
#	28905
#	48036
#	64115
#	81607
#	97793
#	113775
#	129908
#	149767
#
# Disc length: 2235 seconds
#
# Revision: 0
# Processed by: cddbd v1.5.2PL0 Copyright (c) Steve Scherf et al.
# Submitted via: dBpowerAMP V4.0
#
DISCID=8108b90a
DTITLE=Sugarcane - Sick about love
DYEAR=2009
DGENRE=Rock and Roll
TTITLE0=Take me to the boogie
TTITLE1=I need you so
TTITLE2=Sick about love
TTITLE3=Leave it alone
TTITLE4=Keep on ridin'- route 66
TTITLE5=The risin' wind willl blow
TTITLE6=Move it - keep on dancing
TTITLE7=She's kind of crazy
TTITLE8=Brownstone
TTITLE9=To the waterfall
EXTD=
EXTT0=
EXTT1=
EXTT2=
EXTT3=
EXTT4=
EXTT5=
EXTT6=
EXTT7=
EXTT8=
EXTT9=
PLAYORDER=
